<svg xmlns="http://www.w3.org/2000/svg" viewBox="0 0 72 72"><defs><style>.cls-1{fill:#3e92cc;}</style></defs><g id="Layer_2" data-name="Layer 2"><g id="Layer_2-2" data-name="Layer 2"><g id="plus-sign"><path class="cls-1" d="M72,31.68v8.64A2.68,2.68,0,0,1,69.32,43H43V69.32A2.68,2.68,0,0,1,40.32,72H31.68A2.68,2.68,0,0,1,29,69.32V43H2.68A2.68,2.68,0,0,1,0,40.32V31.68A2.68,2.68,0,0,1,2.68,29H29V2.68A2.68,2.68,0,0,1,31.68,0h8.64A2.68,2.68,0,0,1,43,2.68V29H69.32A2.68,2.68,0,0,1,72,31.68Z"/></g></g></g></svg>