<svg id="Layer_1" data-name="Layer 1" xmlns="http://www.w3.org/2000/svg" viewBox="0 0 62.13 49.06"><defs><style>.cls-1{fill:#0a2363;}</style></defs><g id="Layer_2" data-name="Layer 2"><g id="Layer_2-2" data-name="Layer 2-2"><g id="Red_Check" data-name="Red Check"><path class="cls-1" d="M20.52,48.42.63,28.53a2.17,2.17,0,0,1,0-3.06l6.84-6.84a2.17,2.17,0,0,1,3.06,0l10,10a2.16,2.16,0,0,0,3,0l0,0,28-28a2.17,2.17,0,0,1,3.06,0l6.84,6.84a2.16,2.16,0,0,1,0,3l0,0L23.58,48.42a2.16,2.16,0,0,1-3,0Z" transform="translate(0 0)"/></g></g></g></svg>