<svg xmlns="http://www.w3.org/2000/svg" viewBox="0 0 146.99 146.99"><defs><style>.cls-1{fill:#333;}</style></defs><g id="Layer_2" data-name="Layer 2"><g id="Layer_4" data-name="Layer 4"><g id="elementary-school"><path class="cls-1" d="M73.49,71A14.7,14.7,0,1,0,58.8,56.35,14.7,14.7,0,0,0,73.49,71Zm0-24.49a9.8,9.8,0,1,1-9.8,9.8A9.79,9.79,0,0,1,73.49,46.55Z"/><path class="cls-1" d="M73.49,58.8h2.45a2.45,2.45,0,0,0,0-4.9V51.45a2.45,2.45,0,1,0-4.9,0v4.9A2.45,2.45,0,0,0,73.49,58.8Z"/><path class="cls-1" d="M93.09,88.19v-9.8a2.45,2.45,0,0,0-2.45-2.45H56.35a2.45,2.45,0,0,0-2.45,2.45v9.8a2.44,2.44,0,0,0,2.45,2.45H90.64A2.44,2.44,0,0,0,93.09,88.19Zm-4.9-2.45H58.8v-4.9H88.19Z"/><path class="cls-1" d="M17.15,75.94h19.6a2.45,2.45,0,1,0,0-4.9V53.9a2.45,2.45,0,0,0-2.45-2.45H19.6a2.45,2.45,0,0,0-2.45,2.45V71a2.45,2.45,0,1,0,0,4.9Zm4.9-19.59h9.8V71h-9.8Z"/><path class="cls-1" d="M36.75,100.44V83.29a2.45,2.45,0,0,0-2.45-2.45H19.6a2.45,2.45,0,0,0-2.45,2.45v17.15a2.45,2.45,0,1,0,0,4.9h19.6a2.45,2.45,0,0,0,0-4.9Zm-14.7-14.7h9.8v14.7h-9.8Z"/><path class="cls-1" d="M36.75,129.84V112.69a2.45,2.45,0,0,0-2.45-2.45H19.6a2.45,2.45,0,0,0-2.45,2.45v17.15a2.45,2.45,0,1,0,0,4.9h19.6a2.45,2.45,0,1,0,0-4.9Zm-14.7-14.7h9.8v14.7h-9.8Z"/><path class="cls-1" d="M110.24,75.94h19.6a2.45,2.45,0,1,0,0-4.9V53.9a2.45,2.45,0,0,0-2.45-2.45h-14.7a2.45,2.45,0,0,0-2.45,2.45V71a2.45,2.45,0,1,0,0,4.9Zm4.9-19.59h9.8V71h-9.8Z"/><path class="cls-1" d="M110.24,105.34h19.6a2.45,2.45,0,0,0,0-4.9V83.29a2.45,2.45,0,0,0-2.45-2.45h-14.7a2.45,2.45,0,0,0-2.45,2.45v17.15a2.45,2.45,0,1,0,0,4.9Zm4.9-19.6h9.8v14.7h-9.8Z"/><path class="cls-1" d="M110.24,134.74h19.6a2.45,2.45,0,0,0,0-4.9V112.69a2.45,2.45,0,0,0-2.45-2.45h-14.7a2.45,2.45,0,0,0-2.45,2.45v17.15a2.45,2.45,0,1,0,0,4.9Zm4.9-19.6h9.8v14.7h-9.8Z"/><path class="cls-1" d="M144.54,44.1a2.45,2.45,0,1,0,0-4.9h-43.3L75.94,20.8V15.14l11.85,2a2.45,2.45,0,0,0,2.82-2,2.69,2.69,0,0,0,0-.4V4.9a2.45,2.45,0,0,0-2-2.42L73.9,0h0a2.43,2.43,0,0,0-2.82,2,3.13,3.13,0,0,0,0,.43V20.8L45.75,39.2H2.45a2.45,2.45,0,0,0,0,4.9H4.9v98H2.45a2.45,2.45,0,1,0,0,4.9H144.54a2.45,2.45,0,1,0,0-4.9h-2.45v-98Zm-73.5,98H61.25V115.14a12.26,12.26,0,0,1,9.79-12Zm4.9-38.95a12.26,12.26,0,0,1,9.8,12v27h-9.8ZM73.49,98a17.16,17.16,0,0,0-17.14,17.15v27H49V42.89L73.49,25.08,98,42.89v99.2H90.64V115.14A17.16,17.16,0,0,0,73.49,98ZM85.74,11.81l-9.8-1.64V5.34L85.74,7ZM9.8,44.1H44.1v98H9.8Zm127.39,98h-34.3v-98h34.3Z"/></g></g></g></svg>