<svg xmlns="http://www.w3.org/2000/svg" viewBox="0 0 146.99 156.48"><defs><style>.cls-1{fill:#333;}</style></defs><g id="Layer_2" data-name="Layer 2"><g id="Layer_4" data-name="Layer 4"><g id="high-school"><path class="cls-1" d="M144.54,142.46v-69a2.26,2.26,0,0,0-.28-1.08h0l-6-12a7.31,7.31,0,0,0-6.57-4.07H115.14V53.9a2.42,2.42,0,0,0-.71-1.74L101.16,38.9A7.37,7.37,0,0,0,98,37.06V20.54l4.9-1.31v5.95a7.49,7.49,0,0,0,3.34,6.25,2.44,2.44,0,0,0,3.81-1.88A2.44,2.44,0,0,0,109,27.36a2.61,2.61,0,0,1-1.16-2.18V17.69a4.9,4.9,0,0,0-1.18-9L74.76.17a4.69,4.69,0,0,0-2.52,0L40.38,8.72a4.93,4.93,0,0,0,0,9.51L49,20.54v16.2h-.15a7.38,7.38,0,0,0-5.64,2.64L32.43,52.32a2.5,2.5,0,0,0-.58,1.58v2.45H15.28a7.29,7.29,0,0,0-6.57,4.06l-6,12h0a2.46,2.46,0,0,0-.29,1.09v69A4.88,4.88,0,0,0,0,146.68v4.89a4.9,4.9,0,0,0,4.9,4.91H142.09a4.9,4.9,0,0,0,4.9-4.91v-4.89A4.86,4.86,0,0,0,144.54,142.46Zm-29.4-81.22h16.58a2.45,2.45,0,0,1,2.19,1.36l4.22,8.45H110.25v-4.9A4.91,4.91,0,0,0,115.14,61.24ZM41.65,13.46,73.5,4.9l31.88,8.57h0L73.51,22.05Zm51.45,8.4V36.74H53.9V21.86l18.34,4.92a5.12,5.12,0,0,0,2.52,0ZM47,42.53a2.46,2.46,0,0,1,1.89-.88H96a2.48,2.48,0,0,1,1.73.71l9.08,9.08H39.53ZM36.75,56.35h73.5v4.89H36.75ZM83.3,109.93H63.7a2.45,2.45,0,0,0-2.45,2.45v29.4H46.55V75.93h53.9v65.85H85.75v-29.4A2.45,2.45,0,0,0,83.3,109.93Zm-2.45,4.91v26.94H66.15V114.84ZM41.65,71.05v-4.9h63.7v4.9ZM13.09,62.6a2.43,2.43,0,0,1,2.19-1.36H31.85a4.92,4.92,0,0,0,4.9,4.91v4.9H8.87ZM7.35,75.93h34.3v65.85H7.35Zm29.4,75.64H4.9v-4.89H36.75Zm68.6,0H41.65v-4.89h63.7Zm0-75.64h34.29v65.85H105.35Zm36.74,75.64H110.25v-4.89h31.84Z"/><path id="Shape" class="cls-1" d="M66.15,80.84a2.45,2.45,0,0,0-2.45,2.45v4.9a2.45,2.45,0,0,0,4.9,0v-4.9A2.45,2.45,0,0,0,66.15,80.84Z"/><path id="Shape-2" data-name="Shape" class="cls-1" d="M18.07,82.37a2.45,2.45,0,0,0-2.45,2.45v4.9a2.45,2.45,0,0,0,4.9,0v-4.9A2.45,2.45,0,0,0,18.07,82.37Z"/><path id="Shape-3" data-name="Shape" class="cls-1" d="M18.07,111.77a2.45,2.45,0,0,0-2.45,2.45v4.9a2.45,2.45,0,0,0,4.9,0v-4.9A2.45,2.45,0,0,0,18.07,111.77Z"/><path id="Shape-4" data-name="Shape" class="cls-1" d="M18.07,126.47a2.45,2.45,0,0,0-2.45,2.45v4.9a2.45,2.45,0,0,0,4.9,0v-4.9A2.45,2.45,0,0,0,18.07,126.47Z"/><path id="Shape-5" data-name="Shape" class="cls-1" d="M80.85,80.84a2.45,2.45,0,0,0-2.45,2.45v4.9a2.45,2.45,0,0,0,4.9,0v-4.9A2.45,2.45,0,0,0,80.85,80.84Z"/><path id="Shape-6" data-name="Shape" class="cls-1" d="M18.07,97.07a2.45,2.45,0,0,0-2.45,2.45v4.9a2.45,2.45,0,1,0,4.9,0v-4.9A2.45,2.45,0,0,0,18.07,97.07Z"/><path id="Shape-7" data-name="Shape" class="cls-1" d="M30.93,82.37a2.45,2.45,0,0,0-2.45,2.45v4.9a2.45,2.45,0,0,0,4.9,0v-4.9A2.45,2.45,0,0,0,30.93,82.37Z"/><path id="Shape-8" data-name="Shape" class="cls-1" d="M30.93,111.77a2.45,2.45,0,0,0-2.45,2.45v4.9a2.45,2.45,0,0,0,4.9,0v-4.9A2.45,2.45,0,0,0,30.93,111.77Z"/><path id="Shape-9" data-name="Shape" class="cls-1" d="M30.93,126.47a2.45,2.45,0,0,0-2.45,2.45v4.9a2.45,2.45,0,0,0,4.9,0v-4.9A2.44,2.44,0,0,0,30.93,126.47Z"/><path id="Shape-10" data-name="Shape" class="cls-1" d="M30.93,97.07a2.45,2.45,0,0,0-2.45,2.45v4.9a2.45,2.45,0,0,0,4.9,0v-4.9A2.45,2.45,0,0,0,30.93,97.07Z"/><path id="Shape-11" data-name="Shape" class="cls-1" d="M116.37,82.37a2.45,2.45,0,0,0-2.45,2.45v4.9a2.45,2.45,0,0,0,4.9,0v-4.9A2.45,2.45,0,0,0,116.37,82.37Z"/><path id="Shape-12" data-name="Shape" class="cls-1" d="M116.37,111.77a2.45,2.45,0,0,0-2.45,2.45v4.9a2.45,2.45,0,1,0,4.9,0v-4.9A2.45,2.45,0,0,0,116.37,111.77Z"/><path id="Shape-13" data-name="Shape" class="cls-1" d="M116.37,126.47a2.45,2.45,0,0,0-2.45,2.45v4.9a2.45,2.45,0,0,0,4.9,0v-4.9A2.45,2.45,0,0,0,116.37,126.47Z"/><path id="Shape-14" data-name="Shape" class="cls-1" d="M116.37,97.07a2.45,2.45,0,0,0-2.45,2.45v4.9a2.45,2.45,0,1,0,4.9,0v-4.9A2.45,2.45,0,0,0,116.37,97.07Z"/><path id="Shape-15" data-name="Shape" class="cls-1" d="M129.23,82.37a2.45,2.45,0,0,0-2.45,2.45v4.9a2.45,2.45,0,0,0,4.9,0v-4.9A2.45,2.45,0,0,0,129.23,82.37Z"/><path id="Shape-16" data-name="Shape" class="cls-1" d="M129.23,111.77a2.45,2.45,0,0,0-2.45,2.45v4.9a2.45,2.45,0,0,0,4.9,0v-4.9A2.45,2.45,0,0,0,129.23,111.77Z"/><path id="Shape-17" data-name="Shape" class="cls-1" d="M129.23,126.47a2.45,2.45,0,0,0-2.45,2.45v4.9a2.45,2.45,0,0,0,4.9,0v-4.9A2.45,2.45,0,0,0,129.23,126.47Z"/><path id="Shape-18" data-name="Shape" class="cls-1" d="M129.23,97.07a2.45,2.45,0,0,0-2.45,2.45v4.9a2.45,2.45,0,0,0,4.9,0v-4.9A2.45,2.45,0,0,0,129.23,97.07Z"/><path id="Shape-19" data-name="Shape" class="cls-1" d="M66.15,94.62a2.45,2.45,0,0,0-2.45,2.45V102a2.45,2.45,0,0,0,4.9,0v-4.9A2.45,2.45,0,0,0,66.15,94.62Z"/><path id="Shape-20" data-name="Shape" class="cls-1" d="M80.85,94.62a2.45,2.45,0,0,0-2.45,2.45V102a2.45,2.45,0,0,0,4.9,0v-4.9A2.45,2.45,0,0,0,80.85,94.62Z"/></g></g></g></svg>