<svg xmlns="http://www.w3.org/2000/svg" viewBox="0 0 146.99 133.25"><defs><style>.cls-1{fill:#333;}</style></defs><g id="Layer_2" data-name="Layer 2"><g id="Layer_4" data-name="Layer 4"><g id="middle-school"><path class="cls-1" d="M144.45,61.91H112V55.65a2.52,2.52,0,0,0-1.29-2.2L76,33.93V24H82.9v3.78a2.53,2.53,0,0,0,2.53,2.53h20.71a2.54,2.54,0,0,0,2.38-3.4L106.44,21l2.1-5.78a2.53,2.53,0,0,0-2.38-3.39H96.73V8.16A2.53,2.53,0,0,0,94.2,5.63H76V2.53a2.54,2.54,0,0,0-5.07,0v31.4L36.24,53.42A2.53,2.53,0,0,0,35,55.63v6.26H2.53A2.53,2.53,0,0,0,0,64.42v66.3a2.53,2.53,0,0,0,2.53,2.53H144.45a2.54,2.54,0,0,0,2.54-2.53V64.45A2.54,2.54,0,0,0,144.45,61.91ZM96.73,21.47l-.1-.11V17h5.78l-1,3.24a2.51,2.51,0,0,0,0,1.75l1.19,3.24H88V24H94.2A2.53,2.53,0,0,0,96.73,21.47ZM76,10.69H91.66v8.24H76ZM35,128.18H5.07V67H35Zm36,0H57.65V99.24H71Zm18.37,0H76V99.24h13.3Zm17.74,0H94.4V96.71a2.54,2.54,0,0,0-2.53-2.54H55.12a2.54,2.54,0,0,0-2.53,2.54v31.47H39.91v-71l33.58-18.9L107,57.12l.1,7.3Zm34.85,0H112V67h29.88Z"/><path class="cls-1" d="M73.49,46.07a10.62,10.62,0,1,0,10.62,10.6A10.65,10.65,0,0,0,73.49,46.07Zm0,16.17A5.55,5.55,0,1,1,79,56.72h0A5.54,5.54,0,0,1,73.49,62.24Z"/><rect class="cls-1" x="47.62" y="72.56" width="10.14" height="5.07"/><rect class="cls-1" x="68.43" y="72.56" width="10.14" height="5.07"/><rect class="cls-1" x="89.23" y="72.56" width="10.14" height="5.07"/><rect class="cls-1" x="47.62" y="84.37" width="10.14" height="5.07"/><rect class="cls-1" x="68.43" y="84.37" width="10.14" height="5.07"/><rect class="cls-1" x="89.23" y="84.37" width="10.14" height="5.07"/><path class="cls-1" d="M118.63,121.11h17.68a2.21,2.21,0,0,0,0-4.42V101.22A2.21,2.21,0,0,0,134.1,99H120.84a2.21,2.21,0,0,0-2.21,2.21v15.47a2.21,2.21,0,0,0,0,4.42Zm4.42-17.68h8.84v13.26h-8.84Z"/><path class="cls-1" d="M118.7,94h17.69a2.22,2.22,0,0,0,0-4.43V74.07a2.21,2.21,0,0,0-2.21-2.21H120.91a2.21,2.21,0,0,0-2.21,2.21V89.54a2.22,2.22,0,0,0,0,4.43Zm4.43-17.69H132V89.54h-8.84Z"/><path class="cls-1" d="M10.55,121.11H28.24a2.21,2.21,0,0,0,0-4.42V101.22A2.21,2.21,0,0,0,26,99H12.76a2.21,2.21,0,0,0-2.21,2.21v15.47a2.21,2.21,0,1,0,0,4.42ZM15,103.43h8.85v13.26H15Z"/><path class="cls-1" d="M10.63,94H28.31a2.22,2.22,0,0,0,0-4.43V74.07a2.21,2.21,0,0,0-2.21-2.21H12.84a2.21,2.21,0,0,0-2.21,2.21V89.54a2.22,2.22,0,0,0,0,4.43Zm4.42-17.69h8.84V89.54H15.05Z"/></g></g></g></svg>