<svg id="Final" xmlns="http://www.w3.org/2000/svg" viewBox="0 0 1096.18 331.87"><defs><style>.cls-1{fill:#d9305b;}.cls-2{fill:#0a2363;}.cls-3{fill:#3e92cc;}.cls-4{fill:#1d1b18;}</style></defs><polygon class="cls-1" points="1053.51 0 855.09 236.47 1096.18 237.28 1053.51 0"/><polygon class="cls-2" points="974.14 94.59 775.73 331.05 1016.82 331.87 974.14 94.59"/><g id="_9R8dtt.tif" data-name="9R8dtt.tif"><path class="cls-3" d="M848,866.35V863.5q0-32.41,0-64.81c0-3.82.13-3.94,3.82-4,1.95,0,3.9,0,5.84,0a2.15,2.15,0,0,1,2.48,2.41c0,.62,0,1.24,0,1.86q0,41.31,0,82.6c0,4.33-.09,4.42-4.49,4.42-2,0-4.08-.14-6.11,0-2.64.24-4.16-.8-5.46-3.15q-18.26-33.14-36.71-66.15a6.36,6.36,0,0,0-1.87-2.25c-.06,1-.16,1.93-.16,2.89q0,32.15,0,64.28c0,4.32,0,4.34-4.23,4.35-1.69,0-3.37,0-5,0-2,.07-3-.73-2.89-2.81.07-1.5,0-3,0-4.51q0-40,0-80c0-4,.06-4,4-4,2.21,0,4.44.16,6.64,0,2.71-.26,4.13,1,5.39,3.25q18.25,33.13,36.69,66.16c.46.83,1,1.64,1.45,2.46Z" transform="translate(-201.91 -584.06)"/><path class="cls-3" d="M665,840.86c-.07,26.37-20.62,46.92-46.82,46.79a46.37,46.37,0,0,1-46.55-47.13c.13-26.35,20.67-46.86,46.89-46.8S665.1,814.43,665,840.86Zm-46.93,34.9c19.27.41,34.25-14.47,34.76-34.53.51-19.56-14.25-35.2-33.68-35.71s-34.7,14.5-35.09,34.23C583.69,860.12,598.06,875.34,618.1,875.76Z" transform="translate(-201.91 -584.06)"/><path class="cls-3" d="M955.66,848.34H952.6c-8.14,0-16.29,0-24.43,0-2.2,0-3.24-.66-3.19-3,.22-9.23-1.27-7.93,7.77-8,10.27-.06,20.53,0,30.8,0,4,0,4,.16,4.15,4.24.24,8.44-.81,16.64-4.75,24.21-8,15.36-21.23,22-38.07,21.84-22.26-.19-40.26-14.32-44.87-36.07-4.14-19.54,1.06-36.71,17.53-48.72,15.71-11.45,32.91-12.4,50.28-3.25,2.93,1.54,5.42,3.93,8.09,6,1.47,1.12,1.68,2.36.29,3.78-1.8,1.83-3.31,4.83-5.36,5.24-1.82.37-4.25-2.06-6.36-3.33-12.61-7.6-25.5-8-37.85-.09s-16.83,20.13-15.14,34.45c2.75,23.33,25.27,35.13,46,28.27,10.85-3.59,16.83-11.54,18.36-22.85a10.52,10.52,0,0,0,.06-1.59A7.23,7.23,0,0,0,955.66,848.34Z" transform="translate(-201.91 -584.06)"/><path class="cls-3" d="M720.82,851.24c.64,1,1.17,1.91,1.74,2.77,6.28,9.42,12.59,18.82,18.84,28.26a14.89,14.89,0,0,1,1.15,2.82,11.33,11.33,0,0,1-3.1.89c-11-.17-7.59,1.73-13.59-7.26-5.45-8.16-10.79-16.41-16.08-24.68a3.67,3.67,0,0,0-3.63-2c-3.25.13-6.51,0-10,0-.06,1.28-.14,2.31-.14,3.34,0,9,0,18.05,0,27.08,0,3.13-.39,3.49-3.52,3.51-2,0-4.07,0-6.11,0-1.76,0-2.63-.8-2.61-2.57,0-.62,0-1.23,0-1.85V799c0-4.21.09-4.29,4.31-4.29,7.79,0,15.58,0,23.37,0a35.36,35.36,0,0,1,16.66,3.71c9.7,5.12,14.77,15.57,13.64,27.8-1.14,12.4-7.25,20.79-19.45,24.34A13.79,13.79,0,0,0,720.82,851.24ZM696,805.06c0,12.16,0,23.46,0,34.75,0,.5.88,1.44,1.33,1.43,6.79-.2,13.65,0,20.33-1,6.39-.94,10.49-5.35,11.69-11.82a30.5,30.5,0,0,0,.23-8.43c-.69-7.13-4.83-12.32-11.86-13.43S703.59,805.54,696,805.06Z" transform="translate(-201.91 -584.06)"/><path class="cls-3" d="M491.52,827.71c0,8.94,0,17.88,0,26.82,0,6.17-.93,12.21-3.83,17.73-5.91,11.23-15.88,15.37-27.94,15.36-18.38,0-30.77-11.71-31.17-30.1-.43-20-.12-40-.18-60,0-2.09.93-2.85,2.91-2.8s4.07.12,6.1,0c2.4-.16,3.5.78,3.24,3.22-.07.7,0,1.41,0,2.12,0,17.35,0,34.69,0,52a51.72,51.72,0,0,0,.53,7.66c1.55,10.36,8.94,16.4,19.4,16,11.77-.43,18.58-7.8,18.72-20.87.19-17.7,0-35.4.09-53.09,0-8-1.08-7,7.05-7.07.61,0,1.24.06,1.85,0,2.43-.24,3.27.85,3.25,3.25C491.47,807.89,491.52,817.8,491.52,827.71Z" transform="translate(-201.91 -584.06)"/><path class="cls-3" d="M377.35,805.5H360.86c-4.59,0-4.58,0-4.6-4.55,0-6.68-.37-6.22,6.16-6.22h44.09c3.55,0,3.79.22,3.77,3.74,0,8.07.81,6.95-6.84,7-4.5,0-9,0-13.78,0-.07,1.33-.17,2.44-.17,3.55q0,36.39,0,72.78c0,4-.13,4.18-4.17,4.19-1.69,0-3.37-.07-5.05,0-2.19.11-3.08-.86-2.93-3,.09-1.24,0-2.48,0-3.72V805.5Z" transform="translate(-201.91 -584.06)"/><path class="cls-3" d="M530.35,805.5H513.27c-3.85,0-4-.15-4-4.09,0-7.5-.45-6.66,6.76-6.67q21.78,0,43.55,0c3.43,0,3.7.24,3.69,3.56,0,8.38.89,7.11-7.19,7.19-4.41,0-8.82,0-13.61,0v75.6c0,4.92,0,4.92-5,4.92-1.24,0-2.49-.09-3.72,0-2.51.22-3.44-.78-3.42-3.36.11-10.53.05-21.07.05-31.6V805.5Z" transform="translate(-201.91 -584.06)"/><path class="cls-3" d="M759.87,840.36q0-21,0-41.91c0-3.54.17-3.7,3.8-3.71,1.77,0,3.54.08,5.3,0,2.26-.13,3.2.74,3.15,3.07-.11,5.22,0,10.44,0,15.66q0,34.35,0,68.71c0,3.72-.15,3.89-3.9,3.86-9.79-.08-8.24,1.2-8.29-8.24C759.81,865.3,759.87,852.83,759.87,840.36Z" transform="translate(-201.91 -584.06)"/></g><path class="cls-4" d="M244.72,665.5c-1.27,8.85-2.56,17.7-3.81,26.56q-3.18,22.34-6.28,44.69c-.46,3.35-2.09,4.8-5.57,4.73q-11.42-.22-22.86,0c-3.67.08-4.67-1.48-4.17-4.87,2.42-16.64,4.76-33.29,7.12-49.94q4.83-34.17,9.62-68.35c.89-6.37,1.12-6.69,7.52-6.69,8.26,0,16.52.12,24.77-.06,3.21-.07,4.76,1.22,5.86,4.12q13.2,35,26.61,69.83a8,8,0,0,0,2.2,3.4c1-7,2.07-14,3.07-21,2.42-17,4.88-34,7.18-51.07.53-3.9,2.26-5.4,6.25-5.26,7.48.24,15,0,22.48.08,4,0,4.63.88,4.08,4.83q-8.51,60.09-17,120.18c-.47,3.39-2,4.86-5.45,4.82-9.14-.11-18.29-.13-27.43,0-3.16,0-4.77-1.13-5.89-4.09-8.59-22.84-17.34-45.62-26-68.42-.44-1.16-.93-2.3-1.39-3.45Z" transform="translate(-201.91 -584.06)"/><path class="cls-4" d="M470.76,707.18c-1,1.3-1.68,2.17-2.32,3.08-6.5,9.26-13.05,18.48-19.45,27.81a7.09,7.09,0,0,1-6.63,3.43c-7.52-.16-15.05,0-22.57-.1a14.67,14.67,0,0,1-3.5-.94,14.62,14.62,0,0,1,1.34-3.38q19.47-26.73,39.09-53.35c1.69-2.29,1.71-4,.58-6.49-7.52-16.33-14.88-32.74-22.29-49.13-1.94-4.27-1.47-5,3.33-5,7.41,0,14.82.1,22.22-.05,2.9-.06,4.42,1.1,5.47,3.69,3.24,8,6.65,16,10,23.93.48,1.12,1,2.22,1.78,3.86,2.28-3.21,4.28-6,6.26-8.81,4.59-6.5,9.24-13,13.74-19.54a6.52,6.52,0,0,1,6.07-3.13c7.64.13,15.28,0,22.92.09a14,14,0,0,1,3.46.94,14,14,0,0,1-1.29,3.36q-18.57,25.45-37.29,50.8c-1.49,2-1.79,3.52-.7,5.88,8,17.38,15.83,34.84,23.7,52.28,1.94,4.31,1.48,5-3.22,5-7.18,0-14.36-.14-21.53.07-3.38.09-5.23-1-6.5-4.24-3.44-8.79-7.27-17.45-10.94-26.15C472,710,471.49,708.84,470.76,707.18Z" transform="translate(-201.91 -584.06)"/><path class="cls-4" d="M864.85,702.4q4.6-10.21,9.21-20.42c8.29-18.39,16.62-36.77,24.8-55.21,1.22-2.76,2.86-3.78,5.82-3.71,7.17.15,14.35,0,21.53.05,4.77,0,5.19.67,3.12,4.91Q909.68,668.28,890,708.53c-4.76,9.74-9.59,19.45-14.24,29.24a5.74,5.74,0,0,1-5.94,3.71c-7.41-.11-14.82-.13-22.22,0-3.33.06-4.92-1.05-5.61-4.53q-10.72-54.08-21.75-108.1c-1-5.22-.64-5.74,4.78-5.74,6.94,0,13.89.11,20.83-.05,3.06-.07,4.23,1.11,4.75,4.07,4.27,24.64,8.69,49.25,13.06,73.87.08.42.23.82.35,1.23Z" transform="translate(-201.91 -584.06)"/><path class="cls-4" d="M375,668.87h28c7.91,0,7.88,0,6.7,7.91-.69,4.55-1.4,9.11-1.83,13.7-.31,3.32-1.89,4.59-5.18,4.56-9.37-.11-18.74.06-28.12-.1-2.53,0-3.41.77-3.7,3.22-.65,5.58-1.58,11.13-2.47,17.18h9.26c8,0,16,0,23.95,0,3.84,0,4.55.86,4,4.55-.84,5.81-1.79,11.62-2.48,17.45-.36,3-1.9,4.12-4.82,4.12-19.56-.05-39.12,0-58.68,0-3.86,0-4.48-.67-3.95-4.55,1.9-13.69,3.88-27.37,5.82-41.06q4.78-33.71,9.53-67.41c.66-4.69,1.21-5.3,5.82-5.3h57.28c4.75,0,5.18.55,4.48,5.28-.81,5.47-1.72,10.93-2.32,16.42-.34,3.17-1.77,4.39-4.93,4.36-10.07-.1-20.14.06-30.2-.1-2.74,0-3.59,1-3.87,3.49C376.71,657.81,375.86,663,375,668.87Z" transform="translate(-201.91 -584.06)"/><path class="cls-4" d="M763.43,668.87c5.78,0,26.09,0,31,0,4,0,4.69.81,4.15,4.71-.8,5.71-1.68,11.4-2.33,17.12-.35,3.19-1.94,4.35-5,4.32-9.37-.08-18.74.05-28.12-.08-2.4,0-3.51.52-3.79,3.1-.63,5.6-1.59,11.16-2.49,17.29,1.49,0,23.39,0,33.11,0,4,0,4.66.83,4.09,4.79-.85,5.81-1.74,11.62-2.49,17.44-.34,2.67-1.67,3.87-4.33,3.87q-29.85,0-59.71,0c-3.75,0-3.74-2.17-3.36-4.83q2.5-17.45,5-34.89,5.21-36.79,10.39-73.58c.62-4.43,1.23-5.06,5.67-5.06h57.64c4.36,0,4.91.64,4.31,4.83-.82,5.7-1.76,11.39-2.43,17.11-.35,3-1.83,4.14-4.79,4.12-10.07-.08-20.14.05-30.2-.09-2.62,0-3.69.74-4,3.37C765.11,657.79,764.24,663.09,763.43,668.87Z" transform="translate(-201.91 -584.06)"/><path class="cls-4" d="M961,715.34h32.48c4.82,0,5.28.55,4.63,5.18-.81,5.7-1.62,11.4-2.36,17.11-.34,2.64-1.72,3.83-4.39,3.83q-29.87,0-59.72,0c-3.15,0-3.69-1.62-3.31-4.23q2.64-18.47,5.24-37,5-35.41,10-70.84c.85-6.08,1-6.33,7-6.33h56.25c4.82,0,5.13.43,4.42,5.26-.79,5.47-1.62,10.94-2.23,16.44-.35,3.11-1.77,4.4-5,4.37-10.07-.11-20.14,0-30.2-.1-2.68,0-3.59.85-3.86,3.46-.53,5.25-1.43,10.47-2.25,16.13,1.53.08,2.74.19,4,.19,9,0,18.06,0,27.08,0,3.9,0,4.51.71,4,4.49-.75,5.82-1.6,11.64-2.31,17.47-.36,2.92-1.81,4.22-4.81,4.19-9.49-.08-19,.05-28.47-.08-2.5,0-3.38.67-3.66,3.2C962.89,703.73,961.87,709.28,961,715.34Z" transform="translate(-201.91 -584.06)"/><path class="cls-4" d="M567.17,649.14H548c-5.06,0-5.39-.42-4.68-5.36.78-5.47,1.6-10.94,2.25-16.43.34-2.88,1.57-4.28,4.67-4.27q35.58.1,71.17,0c3,0,4.17,1.17,3.68,4.23-.93,5.8-1.77,11.62-2.45,17.45-.37,3.1-1.79,4.46-5,4.4-5.9-.12-11.8,0-17.7-.07-2.17,0-2.95.67-3.26,2.88-4,28.28-8.12,56.55-12.06,84.84-.49,3.51-2,4.74-5.41,4.67-6.82-.15-13.65,0-20.48-.06-3.69,0-4.26-.61-3.74-4.33,2.65-18.94,10.65-75,11.94-84.17C567.07,651.82,567.07,650.69,567.17,649.14Z" transform="translate(-201.91 -584.06)"/><path class="cls-4" d="M667.36,712.8c5.77,0,28.56,0,34.52,0,3,0,4.44,1.07,3.92,4.38-1,6.61-1.9,13.26-2.71,19.91-.38,3-1.82,4.4-5,4.39-41,0-5-.05-62.85-.05-3.89,0-4.53-.9-4-4.91q8.51-60.07,17-120.14c.47-3.36,1.89-4.87,5.43-4.79,7.49.17,15,0,22.48.06,4.59,0,5.28.79,4.61,5.46C678.54,633,667.44,711.19,667.36,712.8Z" transform="translate(-201.91 -584.06)"/><path class="cls-4" d="M1048.18,715.34H1059c6.83,0,13.66.06,20.49,0,3,0,4.21,1.14,3.75,4.18q-1.38,9.06-2.49,18.16c-.35,2.9-1.89,3.83-4.67,3.82q-28.48-.08-57,0c-2.94,0-4.28-.9-3.82-4.08q7.88-54.93,15.58-109.88c.47-3.35,1.88-4.53,5.18-4.45,6.82.16,13.66,0,20.49.06,3.89,0,4.48.74,3.94,4.5q-6,42.28-12,84.55C1048.35,713.07,1048.3,714,1048.18,715.34Z" transform="translate(-201.91 -584.06)"/></svg>